# xmcd
#
# Track frame offsets: 
#        150
#        12636
#        34485
#        45094
#        61894
#        70026
#        87474
#        101559
#        116010
#        133384
#        154059
#
# Disc length: 2266 seconds
#
# Revision: 0
# Processed by: cddbd v1.5.2PL0 Copyright (c) Steve Scherf et al.
# Submitted via: ExactAudioCopy v1.2
#
DISCID=9508d80b
DTITLE=Little Freddie King - Fried Rice and Chicken
DYEAR=2018
DGENRE=Blues
TTITLE0=Cleos Back
TTITLE1=Mean Little Woman
TTITLE2=The Great Chinese
TTITLE3=What I’d Say
TTITLE4=Kinky Cotton Fields
TTITLE5=I Use To Be Down
TTITLE6=Sing, Sang, Sung
TTITLE7=Do She Ever Think Of Me
TTITLE8=Hide Away
TTITLE9=Honest I Do
TTITLE10=Bad Chicken
EXTD=
EXTT0=
EXTT1=
EXTT2=
EXTT3=
EXTT4=
EXTT5=
EXTT6=
EXTT7=
EXTT8=
EXTT9=
EXTT10=
PLAYORDER=
